<svg width="56" height="56" viewBox="0 0 56 56" fill="none" xmlns="http://www.w3.org/2000/svg">
    <rect width="56" height="56" rx="15" fill="#2B2A38"/>
    <path d="M37.5551 30.4033L36.2367 28.21C35.9451 27.7317 35.6884 26.81 35.6884 26.25V24.0683C35.6884 19.8333 32.2467 16.3917 28.0234 16.3917C23.7884 16.4033 20.3467 19.8333 20.3467 24.0683V26.2383C20.3467 26.7983 20.0901 27.72 19.8101 28.1983L18.4917 30.3917C17.9901 31.2433 17.8734 32.2117 18.1884 33.0517C18.5034 33.9033 19.2151 34.58 20.1484 34.8833C21.4084 35.3033 22.6801 35.6067 23.9751 35.8283C24.1034 35.8517 24.2317 35.8633 24.3601 35.8867C24.5234 35.91 24.6984 35.9333 24.8734 35.9567C25.1767 36.0033 25.4801 36.0383 25.7951 36.0617C26.5301 36.1317 27.2767 36.1667 28.0234 36.1667C28.7584 36.1667 29.4934 36.1317 30.2167 36.0617C30.4851 36.0383 30.7534 36.015 31.0101 35.98C31.2201 35.9567 31.4301 35.9333 31.6401 35.8983C31.7684 35.8867 31.8967 35.8633 32.0251 35.84C33.3317 35.63 34.6267 35.3033 35.8867 34.8833C36.7851 34.58 37.4734 33.9033 37.8001 33.04C38.1267 32.165 38.0334 31.2083 37.5551 30.4033ZM28.8751 25.6667C28.8751 26.1567 28.4784 26.5533 27.9884 26.5533C27.4984 26.5533 27.1017 26.1567 27.1017 25.6667V22.05C27.1017 21.56 27.4984 21.1633 27.9884 21.1633C28.4784 21.1633 28.8751 21.56 28.8751 22.05V25.6667Z" fill="#A0A0CC"/>
    <path d="M31.3016 37.345C30.8116 38.6983 29.5166 39.6666 28 39.6666C27.0783 39.6666 26.1683 39.2933 25.5266 38.6283C25.1533 38.2783 24.8733 37.8116 24.71 37.3333C24.8616 37.3566 25.0133 37.3683 25.1766 37.3916C25.445 37.4266 25.725 37.4616 26.005 37.485C26.67 37.5433 27.3466 37.5783 28.0233 37.5783C28.6883 37.5783 29.3533 37.5433 30.0066 37.485C30.2516 37.4616 30.4966 37.45 30.73 37.415C30.9166 37.3916 31.1033 37.3683 31.3016 37.345Z" fill="#A0A0CC"/>
</svg>
