<svg width="56" height="56" viewBox="0 0 56 56" fill="none" xmlns="http://www.w3.org/2000/svg">
    <rect width="56" height="56" rx="15" fill="#2B2A38"/>
    <path fill-rule="evenodd" clip-rule="evenodd" d="M28 38.5C29.2426 38.5 30.25 37.4926 30.25 36.25C30.25 35.0074 29.2426 34 28 34C26.7574 34 25.75 35.0074 25.75 36.25C25.75 37.4926 26.7574 38.5 28 38.5ZM28 30.25C29.2426 30.25 30.25 29.2426 30.25 28C30.25 26.7574 29.2426 25.75 28 25.75C26.7574 25.75 25.75 26.7574 25.75 28C25.75 29.2426 26.7574 30.25 28 30.25ZM30.25 19.75C30.25 20.9926 29.2426 22 28 22C26.7574 22 25.75 20.9926 25.75 19.75C25.75 18.5074 26.7574 17.5 28 17.5C29.2426 17.5 30.25 18.5074 30.25 19.75Z" fill="#A0A0CC"/>
</svg>
