<svg width="60" height="60" viewBox="0 0 60 60" fill="none" xmlns="http://www.w3.org/2000/svg">
    <rect width="60" height="60" rx="15" fill="#F6373F"/>
    <path fill-rule="evenodd" clip-rule="evenodd" d="M27.8333 24.1667C27.8333 21.6814 29.848 19.6667 32.3332 19.6667C34.4748 19.6667 36.267 21.1627 36.7217 23.1667H40.4999C41.0522 23.1667 41.4999 23.6144 41.4999 24.1667C41.4999 24.7189 41.0522 25.1667 40.4999 25.1667H36.7217C36.267 27.1706 34.4748 28.6667 32.3332 28.6667C29.848 28.6667 27.8333 26.6519 27.8333 24.1667ZM32.3332 21.6667C30.9525 21.6667 29.8333 22.7859 29.8333 24.1667C29.8333 25.5474 30.9525 26.6667 32.3332 26.6667C33.714 26.6667 34.8332 25.5474 34.8332 24.1667C34.8332 22.7859 33.714 21.6667 32.3332 21.6667ZM18.3333 23.1667C17.781 23.1667 17.3333 23.6144 17.3333 24.1667C17.3333 24.7189 17.781 25.1667 18.3333 25.1667H25.3333C25.8855 25.1667 26.3333 24.7189 26.3333 24.1667C26.3333 23.6144 25.8855 23.1667 25.3333 23.1667H18.3333ZM18.3333 34.8333C17.781 34.8333 17.3333 35.281 17.3333 35.8333C17.3333 36.3856 17.781 36.8333 18.3333 36.8333H22.1114C22.5662 38.8373 24.3583 40.3333 26.4999 40.3333C28.9852 40.3333 30.9999 38.3186 30.9999 35.8333C30.9999 33.348 28.9852 31.3333 26.4999 31.3333C24.3583 31.3333 22.5662 32.8293 22.1114 34.8333H18.3333ZM33.4999 34.8333C32.9476 34.8333 32.4999 35.281 32.4999 35.8333C32.4999 36.3856 32.9476 36.8333 33.4999 36.8333H40.4999C41.0522 36.8333 41.4999 36.3856 41.4999 35.8333C41.4999 35.281 41.0522 34.8333 40.4999 34.8333H33.4999ZM23.9999 35.8333C23.9999 34.4526 25.1192 33.3333 26.4999 33.3333C27.8806 33.3333 28.9999 34.4526 28.9999 35.8333C28.9999 37.214 27.8806 38.3333 26.4999 38.3333C25.1192 38.3333 23.9999 37.214 23.9999 35.8333Z" fill="white"/>
</svg>
