<svg width="28" height="28" viewBox="0 0 28 28" fill="none" xmlns="http://www.w3.org/2000/svg">
    <path fill-rule="evenodd" clip-rule="evenodd" d="M12.833 4.5C17.4353 4.5 21.1668 8.23078 21.167 12.833C21.167 17.4354 17.4354 21.167 12.833 21.167C8.23078 21.1668 4.5 17.4353 4.5 12.833C4.50018 8.23089 8.23089 4.50018 12.833 4.5ZM20.8131 19.399C22.2837 17.6137 23.167 15.3264 23.167 12.833C23.1668 7.12621 18.5398 2.5 12.833 2.5C7.12632 2.50018 2.50018 7.12632 2.5 12.833C2.5 18.5398 7.12621 23.1668 12.833 23.167C15.3264 23.167 17.6137 22.2837 19.399 20.8131L22.6263 24.0404L22.7025 24.1087C23.0952 24.4291 23.6742 24.4065 24.0404 24.0404C24.4065 23.6742 24.4291 23.0952 24.1087 22.7025L24.0404 22.6263L20.8131 19.399Z" fill="#A0A0CC"/>
</svg>
