<svg width="85" height="60" viewBox="0 0 85 60" fill="none" xmlns="http://www.w3.org/2000/svg">
    <g clip-path="url(#clip0_1_2900)">
        <path d="M35.845 54.7681C36.3473 56.0767 37.2266 57.2007 38.3679 57.9932C39.5092 58.7856 40.8593 59.2096 42.2416 59.2096C43.6239 59.2096 44.974 58.7856 46.1153 57.9932C47.2566 57.2007 48.136 56.0767 48.6383 54.7681H35.845Z" fill="#ECECEC"/>
        <path d="M79.8053 19.3225V41.8591C79.8057 42.2938 79.6658 42.7167 79.407 43.0628C79.1482 43.409 78.7848 43.6593 78.3725 43.7755L46.4626 52.7851H84.4957V19.3225H79.8053Z" fill="#ECECEC"/>
        <path d="M6.11909 43.7713C5.70937 43.6532 5.34867 43.4027 5.09161 43.0576C4.83455 42.7126 4.69512 42.2918 4.69443 41.8591V19.3225H0V52.781H38.029L6.11909 43.7713Z" fill="#ECECEC"/>
        <path d="M28.0481 40.7155C27.8601 40.53 27.7105 40.3083 27.6081 40.0632C27.5058 39.8181 27.4527 39.5547 27.4521 39.2885V7.29429L18.2224 2.63184V39.7863L36.4613 48.995L28.0481 40.7155Z" fill="#ECECEC"/>
        <path d="M57.0271 7.29429V39.2885C57.0274 39.5549 56.9748 39.8186 56.8724 40.0638C56.7699 40.3089 56.6199 40.5306 56.4311 40.7155L48.022 48.9867L58.2517 43.8224L66.2609 39.7863V2.63184L57.0271 7.29429Z" fill="#ECECEC"/>
        <path d="M68.2162 13.7895V39.7856C68.2165 40.1561 68.115 40.5194 67.9232 40.8345C67.7314 41.1496 67.4568 41.4041 67.1304 41.5693L52.2144 49.098L77.8378 41.8596V11.0725L68.2162 13.7895Z" fill="#ECECEC"/>
        <path d="M17.349 41.561C17.0226 41.3958 16.748 41.1413 16.5562 40.8262C16.3644 40.5111 16.2629 40.1478 16.2631 39.7773V13.7895L6.6416 11.0725V41.8596L24.4396 46.883L32.265 49.0939L17.349 41.561Z" fill="#ECECEC"/>
        <path d="M41.262 12.2882L29.4116 0.63208V39.2881L35.8246 45.5974L41.262 50.9442V12.2882Z" fill="#ECECEC"/>
        <path d="M43.2212 12.2882V50.9442L55.0716 39.2881V0.63208L43.2212 12.2882Z" fill="#ECECEC"/>
    </g>
    <defs>
        <clipPath id="clip0_1_2900">
            <rect width="84.4834" height="58.5752" fill="white" transform="translate(0 0.631958)"/>
        </clipPath>
    </defs>
</svg>
